<svg version="1.1" xmlns="http://www.w3.org/2000/svg" style="display: block;" viewBox="0 0 1650 2048" width="1650" height="2048" preserveAspectRatio="none">
<defs>
	<linearGradient id="Gradient1" gradientUnits="userSpaceOnUse" x1="1219.18" y1="812.739" x2="1198.71" y2="955.958">
		<stop class="stop0" offset="0" stop-opacity="1" stop-color="rgb(133,111,164)"/>
		<stop class="stop1" offset="1" stop-opacity="1" stop-color="rgb(205,155,228)"/>
	</linearGradient>
	<linearGradient id="Gradient2" gradientUnits="userSpaceOnUse" x1="598.79" y1="869.132" x2="661.817" y2="744.669">
		<stop class="stop0" offset="0" stop-opacity="1" stop-color="rgb(159,128,185)"/>
		<stop class="stop1" offset="1" stop-opacity="1" stop-color="rgb(196,150,220)"/>
	</linearGradient>
	<linearGradient id="Gradient3" gradientUnits="userSpaceOnUse" x1="1272.94" y1="770.825" x2="1240.85" y2="840.016">
		<stop class="stop0" offset="0" stop-opacity="1" stop-color="rgb(95,90,130)"/>
		<stop class="stop1" offset="1" stop-opacity="1" stop-color="rgb(134,113,164)"/>
	</linearGradient>
	<linearGradient id="Gradient4" gradientUnits="userSpaceOnUse" x1="874.997" y1="990.952" x2="918.545" y2="1057.1">
		<stop class="stop0" offset="0" stop-opacity="1" stop-color="rgb(8,83,63)"/>
		<stop class="stop1" offset="1" stop-opacity="1" stop-color="rgb(76,110,114)"/>
	</linearGradient>
	<linearGradient id="Gradient5" gradientUnits="userSpaceOnUse" x1="1019.66" y1="1096.14" x2="1018.79" y2="972.33">
		<stop class="stop0" offset="0" stop-opacity="1" stop-color="rgb(7,80,64)"/>
		<stop class="stop1" offset="1" stop-opacity="1" stop-color="rgb(72,132,112)"/>
	</linearGradient>
	<linearGradient id="Gradient6" gradientUnits="userSpaceOnUse" x1="852.703" y1="1024.2" x2="883.266" y2="1133.76">
		<stop class="stop0" offset="0" stop-opacity="1" stop-color="rgb(0,71,55)"/>
		<stop class="stop1" offset="1" stop-opacity="1" stop-color="rgb(61,104,101)"/>
	</linearGradient>
	<linearGradient id="Gradient7" gradientUnits="userSpaceOnUse" x1="375.365" y1="909.376" x2="455.927" y2="796.327">
		<stop class="stop0" offset="0" stop-opacity="1" stop-color="rgb(2,64,57)"/>
		<stop class="stop1" offset="1" stop-opacity="1" stop-color="rgb(26,111,85)"/>
	</linearGradient>
	<linearGradient id="Gradient8" gradientUnits="userSpaceOnUse" x1="803.228" y1="737.993" x2="860.248" y2="683.132">
		<stop class="stop0" offset="0" stop-opacity="1" stop-color="rgb(53,128,99)"/>
		<stop class="stop1" offset="1" stop-opacity="1" stop-color="rgb(96,187,137)"/>
	</linearGradient>
	<linearGradient id="Gradient9" gradientUnits="userSpaceOnUse" x1="627.421" y1="856.584" x2="850.278" y2="724.595">
		<stop class="stop0" offset="0" stop-opacity="1" stop-color="rgb(0,74,59)"/>
		<stop class="stop1" offset="1" stop-opacity="1" stop-color="rgb(50,127,96)"/>
	</linearGradient>
	<linearGradient id="Gradient10" gradientUnits="userSpaceOnUse" x1="890.794" y1="1065.58" x2="956.996" y2="1111.27">
		<stop class="stop0" offset="0" stop-opacity="1" stop-color="rgb(75,107,115)"/>
		<stop class="stop1" offset="1" stop-opacity="1" stop-color="rgb(147,143,181)"/>
	</linearGradient>
	<linearGradient id="Gradient11" gradientUnits="userSpaceOnUse" x1="925.511" y1="1046.21" x2="975.208" y2="1132.3">
		<stop class="stop0" offset="0" stop-opacity="1" stop-color="rgb(67,106,108)"/>
		<stop class="stop1" offset="1" stop-opacity="1" stop-color="rgb(131,124,163)"/>
	</linearGradient>
	<linearGradient id="Gradient12" gradientUnits="userSpaceOnUse" x1="955.973" y1="1120.96" x2="1070.25" y2="1223.67">
		<stop class="stop0" offset="0" stop-opacity="1" stop-color="rgb(78,104,119)"/>
		<stop class="stop1" offset="1" stop-opacity="1" stop-color="rgb(176,133,196)"/>
	</linearGradient>
	<linearGradient id="Gradient13" gradientUnits="userSpaceOnUse" x1="522.101" y1="1060.93" x2="540.661" y2="812.975">
		<stop class="stop0" offset="0" stop-opacity="1" stop-color="rgb(0,54,52)"/>
		<stop class="stop1" offset="1" stop-opacity="1" stop-color="rgb(40,129,96)"/>
	</linearGradient>
	<linearGradient id="Gradient14" gradientUnits="userSpaceOnUse" x1="525.456" y1="876.8" x2="455.544" y2="840.2">
		<stop class="stop0" offset="0" stop-opacity="1" stop-color="rgb(18,98,74)"/>
		<stop class="stop1" offset="1" stop-opacity="1" stop-color="rgb(70,175,131)"/>
	</linearGradient>
	<linearGradient id="Gradient15" gradientUnits="userSpaceOnUse" x1="510.567" y1="735.731" x2="329.662" y2="869.371">
		<stop class="stop0" offset="0" stop-opacity="1" stop-color="rgb(2,62,57)"/>
		<stop class="stop1" offset="1" stop-opacity="1" stop-color="rgb(31,118,86)"/>
	</linearGradient>
	<linearGradient id="Gradient16" gradientUnits="userSpaceOnUse" x1="435.065" y1="786.714" x2="547.775" y2="663.539">
		<stop class="stop0" offset="0" stop-opacity="1" stop-color="rgb(23,109,83)"/>
		<stop class="stop1" offset="1" stop-opacity="1" stop-color="rgb(86,175,131)"/>
	</linearGradient>
	<linearGradient id="Gradient17" gradientUnits="userSpaceOnUse" x1="1164.84" y1="932.055" x2="1098.11" y2="752.444">
		<stop class="stop0" offset="0" stop-opacity="1" stop-color="rgb(102,114,139)"/>
		<stop class="stop1" offset="1" stop-opacity="1" stop-color="rgb(168,138,195)"/>
	</linearGradient>
	<linearGradient id="Gradient18" gradientUnits="userSpaceOnUse" x1="1082.3" y1="884.664" x2="1067.43" y2="725.493">
		<stop class="stop0" offset="0" stop-opacity="1" stop-color="rgb(102,113,137)"/>
		<stop class="stop1" offset="1" stop-opacity="1" stop-color="rgb(161,133,190)"/>
	</linearGradient>
	<linearGradient id="Gradient19" gradientUnits="userSpaceOnUse" x1="1217.88" y1="797.299" x2="1172.37" y2="626.635">
		<stop class="stop0" offset="0" stop-opacity="1" stop-color="rgb(152,127,181)"/>
		<stop class="stop1" offset="1" stop-opacity="1" stop-color="rgb(206,157,227)"/>
	</linearGradient>
	<linearGradient id="Gradient20" gradientUnits="userSpaceOnUse" x1="1219.69" y1="748.253" x2="1171.11" y2="679.177">
		<stop class="stop0" offset="0" stop-opacity="1" stop-color="rgb(179,150,205)"/>
		<stop class="stop1" offset="1" stop-opacity="1" stop-color="rgb(220,177,238)"/>
	</linearGradient>
	<linearGradient id="Gradient21" gradientUnits="userSpaceOnUse" x1="1139.29" y1="781.798" x2="1330.49" y2="823.623">
		<stop class="stop0" offset="0" stop-opacity="1" stop-color="rgb(7,71,62)"/>
		<stop class="stop1" offset="1" stop-opacity="1" stop-color="rgb(51,141,101)"/>
	</linearGradient>
	<linearGradient id="Gradient22" gradientUnits="userSpaceOnUse" x1="1035.26" y1="1130.27" x2="1153.98" y2="903.075">
		<stop class="stop0" offset="0" stop-opacity="1" stop-color="rgb(0,75,51)"/>
		<stop class="stop1" offset="1" stop-opacity="1" stop-color="rgb(103,117,136)"/>
	</linearGradient>
	<linearGradient id="Gradient23" gradientUnits="userSpaceOnUse" x1="727.711" y1="1188.19" x2="790.232" y2="926.772">
		<stop class="stop0" offset="0" stop-opacity="1" stop-color="rgb(0,76,59)"/>
		<stop class="stop1" offset="1" stop-opacity="1" stop-color="rgb(95,117,128)"/>
	</linearGradient>
	<linearGradient id="Gradient24" gradientUnits="userSpaceOnUse" x1="851.574" y1="1036.66" x2="804.776" y2="922.195">
		<stop class="stop0" offset="0" stop-opacity="1" stop-color="rgb(69,136,127)"/>
		<stop class="stop1" offset="1" stop-opacity="1" stop-color="rgb(191,171,211)"/>
	</linearGradient>
	<linearGradient id="Gradient25" gradientUnits="userSpaceOnUse" x1="691.361" y1="1145.06" x2="693.395" y2="894.023">
		<stop class="stop0" offset="0" stop-opacity="1" stop-color="rgb(15,110,78)"/>
		<stop class="stop1" offset="1" stop-opacity="1" stop-color="rgb(135,164,164)"/>
	</linearGradient>
	<linearGradient id="Gradient26" gradientUnits="userSpaceOnUse" x1="572.214" y1="1211.07" x2="639.514" y2="1078.27">
		<stop class="stop0" offset="0" stop-opacity="1" stop-color="rgb(2,67,60)"/>
		<stop class="stop1" offset="1" stop-opacity="1" stop-color="rgb(14,101,77)"/>
	</linearGradient>
	<linearGradient id="Gradient27" gradientUnits="userSpaceOnUse" x1="617.234" y1="1122.87" x2="586.622" y2="871.677">
		<stop class="stop0" offset="0" stop-opacity="1" stop-color="rgb(72,58,111)"/>
		<stop class="stop1" offset="1" stop-opacity="1" stop-color="rgb(162,138,189)"/>
	</linearGradient>
	<linearGradient id="Gradient28" gradientUnits="userSpaceOnUse" x1="947.332" y1="848.553" x2="922.31" y2="678.15">
		<stop class="stop0" offset="0" stop-opacity="1" stop-color="rgb(73,61,110)"/>
		<stop class="stop1" offset="1" stop-opacity="1" stop-color="rgb(126,114,157)"/>
	</linearGradient>
	<linearGradient id="Gradient29" gradientUnits="userSpaceOnUse" x1="932.145" y1="732.459" x2="819.595" y2="541.964">
		<stop class="stop0" offset="0" stop-opacity="1" stop-color="rgb(106,94,139)"/>
		<stop class="stop1" offset="1" stop-opacity="1" stop-color="rgb(180,140,205)"/>
	</linearGradient>
	<linearGradient id="Gradient30" gradientUnits="userSpaceOnUse" x1="1006.66" y1="664.16" x2="828.266" y2="570.936">
		<stop class="stop0" offset="0" stop-opacity="1" stop-color="rgb(126,111,158)"/>
		<stop class="stop1" offset="1" stop-opacity="1" stop-color="rgb(197,151,219)"/>
	</linearGradient>
	<linearGradient id="Gradient31" gradientUnits="userSpaceOnUse" x1="789.857" y1="1174.51" x2="897.834" y2="871.885">
		<stop class="stop0" offset="0" stop-opacity="1" stop-color="rgb(29,92,80)"/>
		<stop class="stop1" offset="1" stop-opacity="1" stop-color="rgb(151,128,178)"/>
	</linearGradient>
</defs>
<path transform="translate(0,0)" fill="rgb(12,15,24)" d="M 0 0 L 1650 0 L 1650 2048 L 0 2048 L 0 0 z"/>
<path transform="translate(0,0)" fill="url(#Gradient31)" d="M 860.711 514.172 C 865.036 511.192 868.115 509.3 872.697 506.724 C 858.265 524.216 849.393 538.99 851.512 562.914 C 852.931 580.033 861.323 595.818 874.723 606.567 C 883.701 613.868 896.858 620.521 907.542 625.233 C 938.586 638.926 967.628 652.681 988.155 681.405 C 1012.72 715.974 1016.91 760.084 1011.42 801.064 C 1006.97 825.725 997.324 848.571 982.583 868.909 C 981.013 871.074 977.579 875.807 975.72 877.195 C 969.773 885.747 960.774 894.152 953.179 901.356 C 913.776 938.731 863.015 957.74 829.388 1001.56 C 802.199 1036.99 789.798 1078.43 774.2 1119.53 C 769.4 1132.18 758.137 1159.23 750.143 1170.06 C 745.312 1178.11 735.62 1191.79 728.38 1197.72 C 720.535 1210.79 688.173 1227.58 673.191 1231.25 C 570.059 1256.53 490.295 1151.78 509.064 1055.54 C 512.619 1037.31 520.691 1015.61 530.549 998.906 C 535.71 985.973 554.466 960.286 562.998 948.766 C 583.932 920.502 600.304 899.577 614.812 867.537 L 616.701 871.031 C 622.86 872.072 637.356 861.984 638.455 875.681 C 640.405 876.786 640.337 876.842 642.512 877.264 C 644.784 885.47 636.694 890.84 639.283 898.099 C 618.342 939.975 557.707 1017.56 625.551 1060.97 C 633.236 1065.89 650.497 1065.93 658.806 1062.57 C 674.545 1056.56 687.503 1039.39 697.634 1026.21 C 733.383 952.27 751.81 916.924 832.319 882.666 C 835.567 880.548 849.68 874.558 853.957 872.642 C 856.845 870.496 861.256 868.059 864.516 866.31 C 914.579 839.46 942.919 794.651 925.65 736.581 C 904.328 681.606 857.947 677.185 828.876 631.018 C 804.582 592.437 821.938 536.608 860.711 514.172 z"/>
<path transform="translate(0,0)" fill="rgb(167,142,193)" d="M 860.711 514.172 C 865.036 511.192 868.115 509.3 872.697 506.724 C 858.265 524.216 849.393 538.99 851.512 562.914 C 852.931 580.033 861.323 595.818 874.723 606.567 C 883.701 613.868 896.858 620.521 907.542 625.233 C 938.586 638.926 967.628 652.681 988.155 681.405 C 1012.72 715.974 1016.91 760.084 1011.42 801.064 C 1006.97 825.725 997.324 848.571 982.583 868.909 C 981.013 871.074 977.579 875.807 975.72 877.195 C 968.575 877.946 960.961 894.891 953.36 897.67 L 953.65 894.31 C 949.811 889.8 934.211 889.3 928.274 885.928 C 926.035 884.656 924.976 886.08 921.483 884.626 C 922.337 883.237 941.879 869.662 946.266 865.454 C 943.059 865.799 940.804 869.189 937.095 870.636 L 932.004 872.953 C 931.299 871.159 931.582 872.026 932.361 869.483 C 915.174 878.819 900.952 890.243 882.251 898.742 L 881.533 898.012 C 876.533 897.7 855.398 913.728 847.667 916.476 C 846.948 914.845 847.34 913.887 847.524 911.91 L 846.503 911.166 L 845.218 913.363 C 841.589 912.711 837.012 908.556 833.377 906.176 C 830.892 906.561 831.575 906.767 829.331 906.217 C 829.713 903.906 830.363 902.06 829.382 900.047 C 824.11 898.344 818.744 902.483 814.215 905.114 C 811.437 904.961 811.271 905.471 809.817 903.991 C 812.297 903.01 814.068 902.707 815.355 900.467 C 815.817 896.783 816.23 897.746 814.837 894.868 L 812.606 895.144 C 817.536 891.832 829.76 886.805 832.319 882.666 C 835.567 880.548 849.68 874.558 853.957 872.642 C 856.845 870.496 861.256 868.059 864.516 866.31 C 914.579 839.46 942.919 794.651 925.65 736.581 C 904.328 681.606 857.947 677.185 828.876 631.018 C 804.582 592.437 821.938 536.608 860.711 514.172 z"/>
<path transform="translate(0,0)" fill="url(#Gradient30)" d="M 860.711 514.172 C 865.036 511.192 868.115 509.3 872.697 506.724 C 858.265 524.216 849.393 538.99 851.512 562.914 C 852.931 580.033 861.323 595.818 874.723 606.567 C 883.701 613.868 896.858 620.521 907.542 625.233 C 938.586 638.926 967.628 652.681 988.155 681.405 L 986.677 682.424 C 983.989 678.232 978.416 674.221 973.584 673.252 L 972.524 671.152 L 971.108 671.711 C 969.745 678.702 985.649 700.951 979.548 724.86 C 976.449 722.418 985.605 722.717 970.111 719.359 L 968.932 720.352 L 968.78 723.664 L 966.978 724.58 C 960.585 719.84 962.81 728.164 958.727 716.015 L 956.951 718.185 C 954.353 717.47 955.603 718.07 953.479 715.6 L 948.217 723.647 C 946.461 721.742 946.729 721.512 945.916 718.894 C 943.318 719.528 944.573 718.934 942.493 721.57 C 941.029 731.293 937.006 731.565 928.291 729.686 L 926.267 730.933 C 925.98 732.998 925.782 734.481 925.65 736.581 C 904.328 681.606 857.947 677.185 828.876 631.018 C 804.582 592.437 821.938 536.608 860.711 514.172 z"/>
<path transform="translate(0,0)" fill="url(#Gradient29)" d="M 925.65 736.581 C 904.328 681.606 857.947 677.185 828.876 631.018 C 804.582 592.437 821.938 536.608 860.711 514.172 C 858.81 519.567 851.128 528.308 847.553 533.405 C 833.756 552.878 830.94 578.077 840.098 600.115 C 861.98 652.788 929.111 651.131 958.727 716.015 L 956.951 718.185 C 954.353 717.47 955.603 718.07 953.479 715.6 L 948.217 723.647 C 946.461 721.742 946.729 721.512 945.916 718.894 C 943.318 719.528 944.573 718.934 942.493 721.57 C 941.029 731.293 937.006 731.565 928.291 729.686 L 926.267 730.933 C 925.98 732.998 925.782 734.481 925.65 736.581 z"/>
<path transform="translate(0,0)" fill="url(#Gradient28)" d="M 958.727 716.015 C 962.81 728.164 960.585 719.84 966.978 724.58 L 968.78 723.664 L 968.932 720.352 L 970.111 719.359 C 985.605 722.717 976.449 722.418 979.548 724.86 C 985.649 700.951 969.745 678.702 971.108 671.711 L 972.524 671.152 L 973.584 673.252 C 978.416 674.221 983.989 678.232 986.677 682.424 L 988.155 681.405 C 1012.72 715.974 1016.91 760.084 1011.42 801.064 C 1007.96 795.37 1011.77 776.213 1011.38 768.323 C 1010.93 759.183 1011.32 750.787 1009.49 741.562 C 1008.53 743.859 1008.2 746.132 1007.71 748.572 L 1006.5 749.011 L 1004.2 747.603 C 1001.68 749.469 1000.73 751.967 1001.53 755.113 C 996.842 764.737 984.574 798.549 977.891 802.243 C 972.269 815.981 935.311 841.508 920.646 848.554 L 919.118 848.481 C 922.615 845.341 926.643 844.956 927.371 842.355 C 923.007 841.537 920.978 846.156 915.894 845.381 C 910.155 847.265 903.303 851.319 897.64 853.854 C 884.704 859.644 867.326 868.46 853.957 872.642 C 856.845 870.496 861.256 868.059 864.516 866.31 C 914.579 839.46 942.919 794.651 925.65 736.581 C 925.782 734.481 925.98 732.998 926.267 730.933 L 928.291 729.686 C 937.006 731.565 941.029 731.293 942.493 721.57 C 944.573 718.934 943.318 719.528 945.916 718.894 C 946.729 721.512 946.461 721.742 948.217 723.647 L 953.479 715.6 C 955.603 718.07 954.353 717.47 956.951 718.185 L 958.727 716.015 z"/>
<path transform="translate(0,0)" fill="rgb(194,153,217)" d="M 988.155 681.405 C 1012.72 715.974 1016.91 760.084 1011.42 801.064 C 1007.96 795.37 1011.77 776.213 1011.38 768.323 C 1010.93 759.183 1011.32 750.787 1009.49 741.562 C 1008.53 743.859 1008.2 746.132 1007.71 748.572 L 1006.5 749.011 L 1004.2 747.603 C 1001.68 749.469 1000.73 751.967 1001.53 755.113 C 996.842 764.737 984.574 798.549 977.891 802.243 C 978.089 800.716 977.86 801.27 978.639 799.964 C 987.543 785.355 994.225 769.504 998.467 752.929 C 999.737 744.054 1001.9 726.993 998.349 718.932 C 998.034 723.386 998.979 730.048 997.31 733.757 C 997.031 711.799 995.695 702.348 986.677 682.424 L 988.155 681.405 z"/>
<path transform="translate(0,0)" fill="rgb(200,167,224)" d="M 997.31 733.757 C 998.979 730.048 998.034 723.386 998.349 718.932 C 1001.9 726.993 999.737 744.054 998.467 752.929 C 994.225 769.504 987.543 785.355 978.639 799.964 C 977.86 801.27 978.089 800.716 977.891 802.243 C 972.269 815.981 935.311 841.508 920.646 848.554 L 919.118 848.481 C 922.615 845.341 926.643 844.956 927.371 842.355 C 923.007 841.537 920.978 846.156 915.894 845.381 L 924.801 839.953 C 961.989 817.093 984.995 794.086 995.445 750.321 C 996.222 744.995 996.734 739.15 997.31 733.757 z"/>
<path transform="translate(0,0)" fill="url(#Gradient27)" d="M 614.812 867.537 L 616.701 871.031 C 622.86 872.072 637.356 861.984 638.455 875.681 C 640.405 876.786 640.337 876.842 642.512 877.264 C 644.784 885.47 636.694 890.84 639.283 898.099 C 618.342 939.975 557.707 1017.56 625.551 1060.97 C 633.236 1065.89 650.497 1065.93 658.806 1062.57 C 674.545 1056.56 687.503 1039.39 697.634 1026.21 C 695.396 1034.47 691.016 1043 687.594 1050.76 C 676.219 1076.55 662.016 1104.15 636.291 1118.36 C 607.466 1134.29 579.473 1129.39 553.979 1110.86 C 546.128 1109.9 545.118 1103.71 538.626 1097.55 L 537.565 1098.82 L 536.342 1098.34 C 526.785 1083.88 516.316 1046.33 523.769 1030.78 C 525.096 1018.89 527.394 1010.23 530.549 998.906 C 535.71 985.973 554.466 960.286 562.998 948.766 C 583.932 920.502 600.304 899.577 614.812 867.537 z"/>
<path transform="translate(0,0)" fill="rgb(21,97,79)" d="M 537.565 1098.82 L 536.342 1098.34 C 526.785 1083.88 516.316 1046.33 523.769 1030.78 C 523.497 1064.31 530.034 1086.5 553.979 1110.86 C 546.128 1109.9 545.118 1103.71 538.626 1097.55 L 537.565 1098.82 z"/>
<path transform="translate(0,0)" fill="url(#Gradient26)" d="M 530.549 998.906 C 527.394 1010.23 525.096 1018.89 523.769 1030.78 C 516.316 1046.33 526.785 1083.88 536.342 1098.34 L 537.565 1098.82 L 538.054 1099.38 C 544.891 1107.31 546.854 1112.78 556.11 1120.01 C 576.733 1136.13 608.542 1140.6 632.242 1128.92 C 649.732 1120.3 648.524 1118.33 664.976 1132.41 C 672.964 1139.24 667.995 1133.65 674.744 1134.76 L 675.347 1135.92 C 673.713 1139.26 673.445 1138.47 673.994 1141.42 C 676.463 1141.18 677.872 1139.65 679.895 1138.07 L 680.638 1138.95 L 680.512 1137.98 L 679.923 1138.07 C 680.584 1140.2 680.292 1140.8 679.71 1142.93 C 681.436 1143.98 680.778 1143.72 682.717 1144.06 L 684.034 1145.62 C 686.321 1144.95 685.31 1145.55 686.964 1143.49 L 688.093 1144.39 C 686.89 1149.1 682.946 1153.45 680.117 1157.8 L 681.68 1158.18 C 688.178 1153.53 708.434 1124.91 710.292 1117.05 L 712.386 1115.82 L 713.292 1116.81 C 711.168 1125.41 704.93 1129.22 704.259 1136.83 C 696.75 1149.93 684.171 1163.56 672.321 1173.09 L 673.43 1173.37 C 676.262 1170.96 685.217 1162.59 688.105 1162.26 L 688.215 1163.51 C 688.523 1166.86 688.284 1168.35 690.523 1170.68 C 695.883 1171.85 697.697 1169.93 702.743 1172.84 L 703.81 1174.66 C 702.863 1176.58 702.251 1177.78 701.125 1179.64 C 703.353 1180.89 705.208 1181.7 706.912 1183.6 C 709.341 1180.93 709.427 1181.68 709.801 1178.76 C 708.12 1177.96 707.477 1177.65 705.71 1177.01 C 709.711 1175.88 708.761 1175.53 712.228 1176.48 C 714.806 1180.29 714.176 1181.99 716.983 1182.96 C 717.651 1181.68 718.364 1180.46 719.151 1179.25 C 723.705 1180.34 722.51 1182.78 728.523 1183.06 L 729.795 1182.19 L 726.883 1178.63 L 727.519 1177.51 C 730.744 1176.98 734.81 1176.44 737.876 1175.55 C 736.367 1179.73 734.228 1180.41 734.629 1183.56 C 732.114 1190.15 727.335 1194.33 728.38 1197.72 C 720.535 1210.79 688.173 1227.58 673.191 1231.25 C 570.059 1256.53 490.295 1151.78 509.064 1055.54 C 512.619 1037.31 520.691 1015.61 530.549 998.906 z"/>
<path transform="translate(0,0)" fill="url(#Gradient25)" d="M 882.251 898.742 C 900.952 890.243 915.174 878.819 932.361 869.483 C 931.582 872.026 931.299 871.159 932.004 872.953 L 937.095 870.636 C 918.902 886.481 840.546 926.738 833.814 935.094 C 785.603 967.502 765.055 1002.22 742.89 1055.5 C 738.221 1066.72 731.27 1084.81 726.185 1095.1 L 724.978 1094.96 C 725.842 1092.64 726.43 1091.79 725.829 1089.4 C 723.945 1088.82 724.359 1088.89 722.558 1088.69 C 720.968 1091.91 710.733 1114.27 710.292 1117.05 C 708.434 1124.91 688.178 1153.53 681.68 1158.18 L 680.117 1157.8 C 682.946 1153.45 686.89 1149.1 688.093 1144.39 L 686.964 1143.49 C 685.31 1145.55 686.321 1144.95 684.034 1145.62 L 682.717 1144.06 C 680.778 1143.72 681.436 1143.98 679.71 1142.93 C 680.292 1140.8 680.584 1140.2 679.923 1138.07 L 680.512 1137.98 L 680.638 1138.95 L 679.895 1138.07 C 677.872 1139.65 676.463 1141.18 673.994 1141.42 C 673.445 1138.47 673.713 1139.26 675.347 1135.92 L 674.744 1134.76 C 667.995 1133.65 672.964 1139.24 664.976 1132.41 C 648.524 1118.33 649.732 1120.3 632.242 1128.92 C 608.542 1140.6 576.733 1136.13 556.11 1120.01 C 546.854 1112.78 544.891 1107.31 538.054 1099.38 L 537.565 1098.82 L 538.626 1097.55 C 545.118 1103.71 546.128 1109.9 553.979 1110.86 C 579.473 1129.39 607.466 1134.29 636.291 1118.36 C 662.016 1104.15 676.219 1076.55 687.594 1050.76 C 691.016 1043 695.396 1034.47 697.634 1026.21 C 733.383 952.27 751.81 916.924 832.319 882.666 C 829.76 886.805 817.536 891.832 812.606 895.144 L 814.837 894.868 C 816.23 897.746 815.817 896.783 815.355 900.467 C 814.068 902.707 812.297 903.01 809.817 903.991 C 811.271 905.471 811.437 904.961 814.215 905.114 C 818.744 902.483 824.11 898.344 829.382 900.047 C 830.363 902.06 829.713 903.906 829.331 906.217 C 831.575 906.767 830.892 906.561 833.377 906.176 C 837.012 908.556 841.589 912.711 845.218 913.363 L 846.503 911.166 L 847.524 911.91 C 847.34 913.887 846.948 914.845 847.667 916.476 C 855.398 913.728 876.533 897.7 881.533 898.012 L 882.251 898.742 z"/>
<path transform="translate(0,0)" fill="url(#Gradient24)" d="M 882.251 898.742 C 900.952 890.243 915.174 878.819 932.361 869.483 C 931.582 872.026 931.299 871.159 932.004 872.953 L 937.095 870.636 C 918.902 886.481 840.546 926.738 833.814 935.094 C 785.603 967.502 765.055 1002.22 742.89 1055.5 C 738.221 1066.72 731.27 1084.81 726.185 1095.1 L 724.978 1094.96 C 725.842 1092.64 726.43 1091.79 725.829 1089.4 C 723.945 1088.82 724.359 1088.89 722.558 1088.69 C 746.794 1027.25 767.381 971.938 824.16 933.435 C 843.25 920.489 862.238 910.051 882.251 898.742 z"/>
<path transform="translate(0,0)" fill="url(#Gradient23)" d="M 833.814 935.094 L 835.255 937.571 C 834.389 939.412 822.528 950.729 820.135 953.008 C 776.921 994.169 773.692 1051.22 762.832 1105.94 C 759.172 1124.53 754.02 1142.8 747.427 1160.57 C 749.589 1158.8 748.599 1158.96 750.83 1158.64 C 752.861 1162.2 749.045 1164.25 750.143 1170.06 C 745.312 1178.11 735.62 1191.79 728.38 1197.72 C 727.335 1194.33 732.114 1190.15 734.629 1183.56 C 734.228 1180.41 736.367 1179.73 737.876 1175.55 C 734.81 1176.44 730.744 1176.98 727.519 1177.51 L 726.883 1178.63 L 729.795 1182.19 L 728.523 1183.06 C 722.51 1182.78 723.705 1180.34 719.151 1179.25 C 718.364 1180.46 717.651 1181.68 716.983 1182.96 C 714.176 1181.99 714.806 1180.29 712.228 1176.48 C 708.761 1175.53 709.711 1175.88 705.71 1177.01 C 707.477 1177.65 708.12 1177.96 709.801 1178.76 C 709.427 1181.68 709.341 1180.93 706.912 1183.6 C 705.208 1181.7 703.353 1180.89 701.125 1179.64 C 702.251 1177.78 702.863 1176.58 703.81 1174.66 L 702.743 1172.84 C 697.697 1169.93 695.883 1171.85 690.523 1170.68 C 688.284 1168.35 688.523 1166.86 688.215 1163.51 L 688.105 1162.26 C 685.217 1162.59 676.262 1170.96 673.43 1173.37 L 672.321 1173.09 C 684.171 1163.56 696.75 1149.93 704.259 1136.83 C 704.93 1129.22 711.168 1125.41 713.292 1116.81 L 712.386 1115.82 L 710.292 1117.05 C 710.733 1114.27 720.968 1091.91 722.558 1088.69 C 724.359 1088.89 723.945 1088.82 725.829 1089.4 C 726.43 1091.79 725.842 1092.64 724.978 1094.96 L 726.185 1095.1 C 731.27 1084.81 738.221 1066.72 742.89 1055.5 C 765.055 1002.22 785.603 967.502 833.814 935.094 z"/>
<path transform="translate(0,0)" fill="rgb(50,136,102)" d="M 710.292 1117.05 C 710.733 1114.27 720.968 1091.91 722.558 1088.69 C 724.359 1088.89 723.945 1088.82 725.829 1089.4 C 726.43 1091.79 725.842 1092.64 724.978 1094.96 L 726.185 1095.1 C 721.184 1108.7 712.192 1124.64 704.259 1136.83 C 704.93 1129.22 711.168 1125.41 713.292 1116.81 L 712.386 1115.82 L 710.292 1117.05 z"/>
<path transform="translate(0,0)" fill="rgb(21,97,79)" d="M 747.427 1160.57 C 749.589 1158.8 748.599 1158.96 750.83 1158.64 C 752.861 1162.2 749.045 1164.25 750.143 1170.06 C 745.312 1178.11 735.62 1191.79 728.38 1197.72 C 727.335 1194.33 732.114 1190.15 734.629 1183.56 C 738.669 1179.39 744.216 1166.31 747.427 1160.57 z"/>
<path transform="translate(0,0)" fill="url(#Gradient22)" d="M 1073.45 696.949 C 1081.18 679.312 1105.35 656.924 1121.59 646.56 C 1156.3 623.997 1198.63 616.351 1239.04 625.344 C 1280.14 634.558 1312.92 658.129 1335.26 693.659 C 1338.3 698.949 1342.11 705.041 1344.06 710.715 C 1347.03 716.745 1347.96 719.155 1349.95 725.586 C 1349.07 741.117 1351.91 736.611 1342.63 748.818 C 1334.41 759.628 1341.57 767.271 1325.27 775.968 C 1289.54 705.027 1200.03 710.041 1174.85 783.637 C 1163.11 817.96 1174.14 869.481 1176.37 905.319 C 1178.2 934.847 1182.17 965.89 1179.26 995.455 C 1179.46 1027.75 1168.06 1071.98 1148.19 1096.79 C 1114.02 1139.46 1069.65 1160.36 1022.93 1124.14 C 1086.86 1129.49 1106.59 1069.72 1102.13 1016.65 C 1098.82 977.19 1084.8 945.066 1072.56 908.036 C 1067.15 896.609 1059.68 866.706 1056.47 854.166 C 1043.67 804.059 1045.02 742.108 1073.45 696.949 z"/>
<path transform="translate(0,0)" fill="url(#Gradient21)" d="M 1139.54 740.778 C 1140.83 738.153 1143.22 728.943 1144.21 725.653 C 1157.18 682.719 1196.16 649.882 1241.57 648.679 C 1255.65 648.306 1275.31 650.526 1285.25 658.508 L 1284.97 660.541 C 1305.82 670.77 1315.75 677.578 1331.79 695.212 L 1335.26 693.659 C 1338.3 698.949 1342.11 705.041 1344.06 710.715 C 1347.03 716.745 1347.96 719.155 1349.95 725.586 C 1349.07 741.117 1351.91 736.611 1342.63 748.818 C 1334.41 759.628 1341.57 767.271 1325.27 775.968 C 1289.54 705.027 1200.03 710.041 1174.85 783.637 C 1163.11 817.96 1174.14 869.481 1176.37 905.319 C 1178.2 934.847 1182.17 965.89 1179.26 995.455 C 1179.34 971.75 1175.71 941.041 1167.8 918.498 C 1166.89 911.255 1161.95 894.165 1159.89 886.56 C 1155.49 870.742 1151.49 854.816 1147.9 838.797 L 1147.66 845.412 L 1147.14 845.356 C 1143.85 836.813 1142.47 814.683 1140.39 804.56 C 1134.8 811.203 1144.44 838.149 1143.94 848.43 C 1134.29 809.585 1131.99 779.97 1139.54 740.778 z"/>
<path transform="translate(0,0)" fill="url(#Gradient20)" d="M 1139.54 740.778 C 1140.83 738.153 1143.22 728.943 1144.21 725.653 C 1157.18 682.719 1196.16 649.882 1241.57 648.679 C 1255.65 648.306 1275.31 650.526 1285.25 658.508 L 1284.97 660.541 C 1267.92 655.449 1253.91 652.505 1236.01 654.842 C 1190.96 660.721 1160.46 692.198 1148.21 734.906 C 1137.83 771.088 1141.97 802.609 1147.9 838.797 L 1147.66 845.412 L 1147.14 845.356 C 1143.85 836.813 1142.47 814.683 1140.39 804.56 C 1134.8 811.203 1144.44 838.149 1143.94 848.43 C 1134.29 809.585 1131.99 779.97 1139.54 740.778 z"/>
<path transform="translate(0,0)" fill="rgb(133,130,167)" d="M 1335.26 693.659 C 1338.3 698.949 1342.11 705.041 1344.06 710.715 L 1331.79 695.212 L 1335.26 693.659 z"/>
<path transform="translate(0,0)" fill="url(#Gradient19)" d="M 1073.45 696.949 C 1081.18 679.312 1105.35 656.924 1121.59 646.56 C 1156.3 623.997 1198.63 616.351 1239.04 625.344 C 1280.14 634.558 1312.92 658.129 1335.26 693.659 L 1331.79 695.212 C 1315.75 677.578 1305.82 670.77 1284.97 660.541 L 1285.25 658.508 C 1275.31 650.526 1255.65 648.306 1241.57 648.679 C 1196.16 649.882 1157.18 682.719 1144.21 725.653 C 1143.22 728.943 1140.83 738.153 1139.54 740.778 L 1138.41 739.041 C 1137.36 742.806 1137.62 744.394 1135.03 746.574 L 1132.49 746.859 C 1126.86 759.295 1116.91 746.061 1115.32 761.522 L 1112.29 761.619 C 1109.3 754.32 1111.51 755.505 1103.17 750.966 C 1101.86 747.305 1105.1 738.168 1106.21 732.869 L 1105.69 732.768 C 1097.57 745.979 1096.26 788.37 1098.49 804.267 C 1099.22 809.442 1102.56 831.327 1101.82 833.779 L 1100.36 830.626 C 1098.16 830.975 1098.96 830.423 1097.62 831.797 C 1101.36 842.448 1106.53 864.164 1109.88 876.033 L 1109.24 876.832 L 1108.33 876.152 L 1108.49 878.061 C 1104.86 879.267 1106.07 879.638 1103.67 882.734 C 1100.36 880.221 1099.71 877.496 1097.82 877.839 C 1094.1 878.515 1087.83 882.976 1084.43 883.582 C 1080.08 884.356 1075.17 881.64 1070.65 883.598 C 1065.83 891.537 1073.75 900.459 1073.47 907.275 L 1072.56 908.036 C 1067.15 896.609 1059.68 866.706 1056.47 854.166 C 1043.67 804.059 1045.02 742.108 1073.45 696.949 z"/>
<path transform="translate(0,0)" fill="url(#Gradient18)" d="M 1073.45 696.949 C 1062.17 746.845 1059.5 751.839 1076.55 800.807 C 1079.36 804.809 1083.79 813.482 1086.43 814.912 C 1089 815.221 1090.96 815.544 1093.55 815.545 C 1094.09 818.519 1096.04 829.969 1097.62 831.797 C 1101.36 842.448 1106.53 864.164 1109.88 876.033 L 1109.24 876.832 L 1108.33 876.152 L 1108.49 878.061 C 1104.86 879.267 1106.07 879.638 1103.67 882.734 C 1100.36 880.221 1099.71 877.496 1097.82 877.839 C 1094.1 878.515 1087.83 882.976 1084.43 883.582 C 1080.08 884.356 1075.17 881.64 1070.65 883.598 C 1065.83 891.537 1073.75 900.459 1073.47 907.275 L 1072.56 908.036 C 1067.15 896.609 1059.68 866.706 1056.47 854.166 C 1043.67 804.059 1045.02 742.108 1073.45 696.949 z"/>
<path transform="translate(0,0)" fill="rgb(133,130,167)" d="M 1076.55 800.807 C 1079.36 804.809 1083.79 813.482 1086.43 814.912 C 1089 815.221 1090.96 815.544 1093.55 815.545 C 1094.09 818.519 1096.04 829.969 1097.62 831.797 C 1101.36 842.448 1106.53 864.164 1109.88 876.033 L 1109.24 876.832 L 1108.33 876.152 C 1103.36 859.765 1100.19 849.622 1092.83 834.263 C 1088.81 825.859 1079.05 808.569 1076.55 800.807 z"/>
<path transform="translate(0,0)" fill="url(#Gradient17)" d="M 1097.62 831.797 C 1098.96 830.423 1098.16 830.975 1100.36 830.626 L 1101.82 833.779 C 1102.56 831.327 1099.22 809.442 1098.49 804.267 C 1096.26 788.37 1097.57 745.979 1105.69 732.768 L 1106.21 732.869 C 1105.1 738.168 1101.86 747.305 1103.17 750.966 C 1111.51 755.505 1109.3 754.32 1112.29 761.619 L 1115.32 761.522 C 1116.91 746.061 1126.86 759.295 1132.49 746.859 L 1135.03 746.574 C 1137.62 744.394 1137.36 742.806 1138.41 739.041 L 1139.54 740.778 C 1131.99 779.97 1134.29 809.585 1143.94 848.43 C 1144.44 838.149 1134.8 811.203 1140.39 804.56 C 1142.47 814.683 1143.85 836.813 1147.14 845.356 L 1147.66 845.412 L 1147.9 838.797 C 1151.49 854.816 1155.49 870.742 1159.89 886.56 C 1161.95 894.165 1166.89 911.255 1167.8 918.498 C 1166.91 932.532 1171.67 945.619 1174.05 959.801 C 1176.37 973.688 1176.63 980.286 1176.44 993.961 L 1175.19 991.368 C 1169.14 975.003 1170.77 952.388 1164.54 935.697 C 1163.46 932.811 1162.66 926.636 1161.45 925.245 C 1158.44 933.841 1136.68 933.822 1132.05 936.42 C 1127.47 945.793 1136.2 968.252 1135.56 973.829 C 1133.73 969.271 1129.58 950.536 1127.7 943.693 C 1121.51 921.754 1115.1 899.876 1108.49 878.061 L 1108.33 876.152 L 1109.24 876.832 L 1109.88 876.033 C 1106.53 864.164 1101.36 842.448 1097.62 831.797 z"/>
<path transform="translate(0,0)" fill="rgb(133,130,167)" d="M 1143.94 848.43 C 1144.44 838.149 1134.8 811.203 1140.39 804.56 C 1142.47 814.683 1143.85 836.813 1147.14 845.356 L 1147.66 845.412 L 1147.9 838.797 C 1151.49 854.816 1155.49 870.742 1159.89 886.56 C 1161.95 894.165 1166.89 911.255 1167.8 918.498 C 1166.91 932.532 1171.67 945.619 1174.05 959.801 C 1176.37 973.688 1176.63 980.286 1176.44 993.961 L 1175.19 991.368 C 1177.64 955.107 1158.65 906.633 1149.19 871.867 C 1147.88 867.062 1143.74 852.705 1143.94 848.43 z"/>
<path transform="translate(0,0)" fill="url(#Gradient16)" d="M 325.565 679.159 C 344.912 650.915 384.249 630.145 417.499 623.887 C 457.586 616.511 498.959 625.431 532.445 648.67 C 569.287 674.126 590.984 713.625 598.831 757.102 C 602.942 780.193 603.001 803.824 599.003 826.936 C 588.62 883.951 547.247 923.514 518.735 971.799 C 498.701 1005.73 489.371 1031.4 485.355 1070.51 C 477.948 1045.25 469.952 1013.06 471.16 986.438 C 472.093 989.935 472.227 993.531 472.535 997.153 C 473.604 989.821 474.471 982.17 475.416 974.795 L 474.082 974.654 L 473.425 976.393 C 471.888 973.692 472.457 967.07 472.492 963.585 C 472.535 955.152 472.846 945.793 471.893 937.49 C 471.405 873.81 509.24 767.879 432.085 732.489 C 413.503 724.065 392.339 723.354 373.234 730.512 C 325.873 748.379 306.447 804.353 322.16 850.308 C 324.228 856.354 326.356 862.151 328.67 868.113 C 291.92 825.789 282.08 771.631 302.48 719.583 C 304.55 714.302 306.137 708.275 309.577 703.737 C 313.721 694.795 319.232 686.677 325.565 679.159 z"/>
<path transform="translate(0,0)" fill="url(#Gradient15)" d="M 325.201 688.106 C 331.104 683.131 336.901 678.231 343.005 673.937 C 387.797 642.426 447.874 649.376 481.578 693.483 C 482.452 694.626 485.596 698.634 486.66 699.329 C 497.362 704.011 502.002 734.711 507.54 740.443 C 507.58 730.513 501.067 714.509 496.057 705.913 L 496.404 704.754 C 514.897 737.516 517.188 766.869 515.029 803.597 C 507.997 858.215 487.356 908.764 477.615 962.708 C 477.114 965.484 476.231 972.542 475.416 974.795 L 474.082 974.654 L 473.425 976.393 C 471.888 973.692 472.457 967.07 472.492 963.585 C 472.535 955.152 472.846 945.793 471.893 937.49 C 471.405 873.81 509.24 767.879 432.085 732.489 C 413.503 724.065 392.339 723.354 373.234 730.512 C 325.873 748.379 306.447 804.353 322.16 850.308 C 324.228 856.354 326.356 862.151 328.67 868.113 C 291.92 825.789 282.08 771.631 302.48 719.583 C 304.55 714.302 306.137 708.275 309.577 703.737 C 313.721 694.795 319.232 686.677 325.565 679.159 C 327.628 686.933 322.916 681.988 325.201 688.106 z"/>
<path transform="translate(0,0)" fill="url(#Gradient14)" d="M 486.66 699.329 C 497.362 704.011 502.002 734.711 507.54 740.443 C 507.58 730.513 501.067 714.509 496.057 705.913 L 496.404 704.754 C 514.897 737.516 517.188 766.869 515.029 803.597 C 507.997 858.215 487.356 908.764 477.615 962.708 C 477.114 965.484 476.231 972.542 475.416 974.795 L 474.082 974.654 L 473.425 976.393 C 471.888 973.692 472.457 967.07 472.492 963.585 C 475.771 950.157 477.736 935.901 481.214 922.523 C 501.126 845.93 529.554 774.658 486.66 699.329 z"/>
<path transform="translate(0,0)" fill="rgb(50,136,102)" d="M 325.565 679.159 C 327.628 686.933 322.916 681.988 325.201 688.106 C 322.734 690.888 312.272 703.721 309.9 703.96 L 309.577 703.737 C 313.721 694.795 319.232 686.677 325.565 679.159 z"/>
<path transform="translate(0,0)" fill="url(#Gradient13)" d="M 515.029 803.597 L 515.138 804.741 C 515.676 810.94 514.11 815.617 516.203 819.512 C 519.106 820.706 518.353 820.048 520.48 819.845 C 528.897 819.043 528.32 825.135 537.151 819.165 L 537.843 815.868 L 539.05 815.69 L 540.568 817.381 C 541.438 815.247 541.361 816.322 540.73 814.044 C 544.431 812.56 547.923 816.214 549.874 814.012 C 550.132 810.902 550.911 795.034 551.304 794.288 C 555.153 807.907 542.695 857.04 539.355 872.337 C 538.727 875.216 537.46 877.966 539.035 879.004 C 547.729 870.431 551.113 837.419 555.694 833.054 C 564.275 835.155 571.831 836.273 580.479 837.795 C 583.907 835.282 583.412 834.808 586.984 834.501 C 590.921 837.345 591.35 840.181 593.811 840.282 C 595.484 833.991 595.025 830.789 599.003 826.936 C 588.62 883.951 547.247 923.514 518.735 971.799 C 498.701 1005.73 489.371 1031.4 485.355 1070.51 C 477.948 1045.25 469.952 1013.06 471.16 986.438 C 472.093 989.935 472.227 993.531 472.535 997.153 C 473.604 989.821 474.471 982.17 475.416 974.795 C 476.231 972.542 477.114 965.484 477.615 962.708 C 487.356 908.764 507.997 858.215 515.029 803.597 z"/>
<path transform="translate(0,0)" fill="rgb(220,226,226)" d="M 561.661 1348.98 L 599.178 1348.77 C 611.625 1391.72 628.934 1439.17 642.563 1482.53 C 654.421 1440.4 671.351 1392.39 684.525 1349.83 C 698.464 1350.01 712.405 1350 726.344 1349.8 L 662.213 1540.47 C 649.342 1540.24 636.165 1540.34 623.266 1540.3 L 585.946 1429.09 L 580.159 1411.83 L 537.43 1540.45 L 498.299 1540.38 L 433.793 1349.96 L 476.618 1349.78 C 490.381 1393.54 504.47 1437.2 518.884 1480.75 C 533.565 1437.98 546.761 1390.75 561.661 1348.98 z"/>
<path transform="translate(0,0)" fill="rgb(167,142,193)" d="M 914.384 1055.38 C 915.454 1055.83 916.517 1056.27 917.564 1056.77 C 923.54 1051.26 932.415 1042.09 939.698 1039.43 C 945.364 1041.64 945.315 1039.78 949.753 1036.08 C 950.964 1040.53 951.258 1042.78 953.916 1046.58 L 956.319 1047.35 L 959.406 1047.77 C 965.501 1066.04 971.699 1085.5 979.261 1103.15 C 1012.06 1167.29 1077.59 1185.79 1135.2 1140.1 C 1134.07 1142.48 1130.72 1149.89 1129.55 1151.81 C 1100.23 1216.28 1026.82 1254.54 960.004 1224.81 C 937.065 1214.6 909.184 1190.22 898.546 1167.23 C 894.634 1161.49 888.163 1149.81 886.372 1143.24 C 886.975 1140.73 885.512 1136.84 884.85 1133.92 C 887.804 1131.23 893.107 1128.78 896.756 1127.44 C 904.783 1124.47 902.345 1121.2 907.697 1116.61 C 909.244 1118.76 909.312 1119.09 911.483 1120.74 L 913.044 1119.73 C 915.701 1109.14 918.772 1116.26 923.175 1110.89 C 922.637 1108.81 922.535 1108.89 922.877 1106.8 L 924.952 1106.32 C 927.715 1108.77 929.129 1115.62 931.508 1120.3 L 932.718 1118.97 C 922.512 1092.97 916.209 1072.06 903.32 1047.07 L 905.887 1044.39 C 910.418 1045.76 911.051 1052.25 914.384 1055.38 z"/>
<path transform="translate(0,0)" fill="url(#Gradient12)" d="M 886.372 1143.24 C 886.975 1140.73 885.512 1136.84 884.85 1133.92 C 887.804 1131.23 893.107 1128.78 896.756 1127.44 C 904.783 1124.47 902.345 1121.2 907.697 1116.61 C 909.244 1118.76 909.312 1119.09 911.483 1120.74 L 913.044 1119.73 C 915.701 1109.14 918.772 1116.26 923.175 1110.89 C 922.637 1108.81 922.535 1108.89 922.877 1106.8 L 924.952 1106.32 C 927.715 1108.77 929.129 1115.62 931.508 1120.3 L 932.718 1118.97 C 934.846 1123.32 942.657 1138.01 943.557 1141.78 C 945.993 1145.12 948.383 1148.49 950.727 1151.88 C 963.109 1174.03 986.085 1190.43 1010.09 1197.61 C 1047.46 1208.78 1083.7 1193.61 1111.57 1168.89 C 1115.15 1165.71 1126.39 1153.25 1129.55 1151.81 C 1100.23 1216.28 1026.82 1254.54 960.004 1224.81 C 937.065 1214.6 909.184 1190.22 898.546 1167.23 C 894.634 1161.49 888.163 1149.81 886.372 1143.24 z"/>
<path transform="translate(0,0)" fill="rgb(72,101,111)" d="M 886.372 1143.24 C 886.975 1140.73 885.512 1136.84 884.85 1133.92 C 887.804 1131.23 893.107 1128.78 896.756 1127.44 C 904.783 1124.47 902.345 1121.2 907.697 1116.61 C 909.244 1118.76 909.312 1119.09 911.483 1120.74 L 913.044 1119.73 C 915.701 1109.14 918.772 1116.26 923.175 1110.89 C 922.637 1108.81 922.535 1108.89 922.877 1106.8 L 924.952 1106.32 C 927.715 1108.77 929.129 1115.62 931.508 1120.3 L 932.718 1118.97 C 934.846 1123.32 942.657 1138.01 943.557 1141.78 C 944.462 1147.1 946.426 1150.4 948.881 1155.14 C 943.37 1157.87 934.602 1161.73 928.553 1164.09 C 927.264 1164.59 925.66 1161.53 922.706 1163.89 C 923.324 1165.59 923.849 1167.07 924.378 1168.79 C 918.003 1172.89 916.725 1164.61 915.232 1173.58 L 913.046 1170.86 L 911.374 1171.2 C 909.373 1175.45 910.352 1175.23 907.13 1176.5 C 902.249 1173.93 903.374 1166.19 898.546 1167.23 C 894.634 1161.49 888.163 1149.81 886.372 1143.24 z"/>
<path transform="translate(0,0)" fill="url(#Gradient11)" d="M 914.384 1055.38 C 915.454 1055.83 916.517 1056.27 917.564 1056.77 C 923.54 1051.26 932.415 1042.09 939.698 1039.43 C 945.364 1041.64 945.315 1039.78 949.753 1036.08 C 950.964 1040.53 951.258 1042.78 953.916 1046.58 L 956.319 1047.35 L 959.406 1047.77 C 965.501 1066.04 971.699 1085.5 979.261 1103.15 C 978.348 1105 978.065 1105.97 977.714 1108 L 974.714 1105.67 L 980.48 1119.02 C 981.358 1122.58 982.487 1124.7 981.641 1127.88 C 977.306 1131.75 960.002 1140.23 953.976 1143.13 L 946.359 1134.08 L 945.565 1135.37 L 943.579 1132.32 C 942.848 1137.73 950.217 1145.13 950.727 1151.88 C 948.383 1148.49 945.993 1145.12 943.557 1141.78 C 942.657 1138.01 934.846 1123.32 932.718 1118.97 C 922.512 1092.97 916.209 1072.06 903.32 1047.07 L 905.887 1044.39 C 910.418 1045.76 911.051 1052.25 914.384 1055.38 z"/>
<path transform="translate(0,0)" fill="url(#Gradient10)" d="M 903.32 1047.07 L 905.887 1044.39 C 910.418 1045.76 911.051 1052.25 914.384 1055.38 C 926.175 1081.31 934.26 1107.94 946.359 1134.08 L 945.565 1135.37 L 943.579 1132.32 C 942.848 1137.73 950.217 1145.13 950.727 1151.88 C 948.383 1148.49 945.993 1145.12 943.557 1141.78 C 942.657 1138.01 934.846 1123.32 932.718 1118.97 C 922.512 1092.97 916.209 1072.06 903.32 1047.07 z"/>
<path transform="translate(0,0)" fill="rgb(133,130,167)" d="M 959.406 1047.77 C 965.501 1066.04 971.699 1085.5 979.261 1103.15 C 978.348 1105 978.065 1105.97 977.714 1108 L 974.714 1105.67 C 969.216 1099.93 954.673 1055.21 956.319 1047.35 L 959.406 1047.77 z"/>
<path transform="translate(0,0)" fill="rgb(133,130,167)" d="M 980.48 1119.02 C 990.376 1133.19 995.873 1140.03 1008.1 1152.2 L 1007.94 1152.79 C 1000.47 1147.27 990.927 1136.54 985.344 1129.11 C 982.179 1129.92 982.296 1129.79 980.222 1132.27 C 978.743 1141.9 970.414 1136.77 963.505 1141.78 L 963.546 1144.9 C 961.309 1144.83 961.07 1144.51 958.979 1143.6 L 957.342 1144.75 C 956.907 1148.75 959.344 1153.29 960.914 1157.23 C 956.044 1151.44 948.181 1142.3 945.565 1135.37 L 946.359 1134.08 L 953.976 1143.13 C 960.002 1140.23 977.306 1131.75 981.641 1127.88 C 982.487 1124.7 981.358 1122.58 980.48 1119.02 z"/>
<path transform="translate(0,0)" fill="url(#Gradient9)" d="M 791.206 590.601 C 789.666 601.884 789.927 608.299 791.187 619.588 C 795.093 636.288 799.211 648.634 810.273 662.234 C 839.856 698.604 894.759 709.091 898.596 763.491 C 899.53 777.885 896.473 792.258 889.763 805.026 C 875.498 828.58 853.698 841.058 829.549 852.688 C 765.629 883.473 720.076 908.126 692.977 978.232 C 693.001 904.878 731.59 857.167 792.065 820.927 C 813.126 806.551 832.549 793.78 838.496 767.816 C 837.868 762.329 837.098 751.905 834.93 747.19 C 820.449 715.71 789.67 700.994 779.956 664.668 C 772.302 636.044 777.62 615.477 791.206 590.601 z"/>
<path transform="translate(0,0)" fill="url(#Gradient8)" d="M 857.899 798.392 C 876.585 769.666 866.916 740.374 842.595 718.433 C 820.181 698.212 794.438 678.477 786.825 647.057 C 783.318 632.584 785.598 623.7 787.109 609.171 L 787.992 610.665 L 787.365 609.285 C 788.467 613.239 789.619 615.84 791.187 619.588 C 795.093 636.288 799.211 648.634 810.273 662.234 C 839.856 698.604 894.759 709.091 898.596 763.491 C 899.53 777.885 896.473 792.258 889.763 805.026 C 888.729 804.897 887.949 804.706 887.018 804.226 C 885.245 803.314 861.686 798.936 857.899 798.392 z"/>
<path transform="translate(0,0)" fill="rgb(50,136,102)" d="M 838.496 767.816 C 839.595 765.237 839.487 764.564 839.613 761.84 C 841.848 767.597 843.007 781.851 842.97 788.264 C 842.873 805.133 835.13 818.511 822.261 828.719 L 821.184 828.496 C 822.938 826.575 824.431 825.029 826.296 823.213 C 825.55 816.731 822.641 818.611 820.174 817.941 C 816.435 816.925 815.235 812.566 809.728 811.748 C 803.735 814.416 796.272 821.904 792.589 823.058 C 791.905 821.394 791.934 822.125 792.065 820.927 C 813.126 806.551 832.549 793.78 838.496 767.816 z"/>
<path transform="translate(0,0)" fill="rgb(220,226,226)" d="M 867.907 1349.85 L 1025.61 1349.92 L 1025.77 1378.88 L 959.58 1456.6 C 946.824 1471.57 932.362 1487.85 920.482 1503.36 L 1027.48 1503.37 L 1027.36 1538.97 L 865.083 1538.94 L 865.111 1509.95 L 971.901 1385.07 L 867.889 1384.99 L 867.907 1349.85 z"/>
<path transform="translate(0,0)" fill="rgb(220,226,226)" d="M 1078.26 1349.94 L 1119.23 1349.97 L 1119.22 1502.92 L 1217.36 1502.84 L 1217.23 1538.85 L 1078.25 1538.93 L 1078.26 1349.94 z"/>
<path transform="translate(0,0)" fill="rgb(220,226,226)" d="M 772.917 1349.9 L 813.486 1349.87 L 813.586 1539.12 C 800.124 1538.91 786.326 1539.06 772.835 1539.05 L 772.917 1349.9 z"/>
<path transform="translate(0,0)" fill="url(#Gradient7)" d="M 393.845 764.31 L 394.82 764.25 C 421.564 762.817 442.192 780.043 448.835 805.491 C 457.934 840.345 450.201 877.472 447.53 912.87 C 446.298 930.634 446.111 948.455 446.972 966.241 C 437.54 947.203 433.66 933.473 429.249 912.891 C 421.949 879.755 430.729 786.07 369.563 804.543 C 356.848 808.383 349.804 824.247 345.192 835.673 C 343.58 799.947 354.989 770.768 393.845 764.31 z"/>
<path transform="translate(0,0)" fill="url(#Gradient6)" d="M 837.391 1031.56 C 845.961 1027.72 848.294 1024.56 858.201 1022.24 C 881.436 1016.81 890.855 1030.48 903.32 1047.07 C 916.209 1072.06 922.512 1092.97 932.718 1118.97 L 931.508 1120.3 C 929.129 1115.62 927.715 1108.77 924.952 1106.32 L 922.877 1106.8 C 922.535 1108.89 922.637 1108.81 923.175 1110.89 C 918.772 1116.26 915.701 1109.14 913.044 1119.73 L 911.483 1120.74 C 909.312 1119.09 909.244 1118.76 907.697 1116.61 C 902.345 1121.2 904.783 1124.47 896.756 1127.44 C 893.107 1128.78 887.804 1131.23 884.85 1133.92 C 885.512 1136.84 886.975 1140.73 886.372 1143.24 C 871.451 1114.79 861.442 1040.2 814.417 1078.32 C 819.777 1065.08 828.574 1042.83 837.391 1031.56 z"/>
<path transform="translate(0,0)" fill="url(#Gradient5)" d="M 1064.36 961.87 C 1065.27 962.748 1065.25 962.512 1065.66 963.766 C 1077.05 999.779 1085.5 1036.57 1069.9 1072.93 C 1060 1096.01 1037.71 1105.88 1014.48 1095.13 C 995.864 1086.51 988.752 1057.62 982.746 1039.24 C 975.445 1016.16 972.649 1006.62 959.185 986.405 C 984.279 1000.09 1000.99 1041.92 1030.96 1038.7 C 1065.61 1034.98 1067.44 988.89 1064.36 961.87 z"/>
<path transform="translate(0,0)" fill="url(#Gradient4)" d="M 837.391 1031.56 C 840.875 1024.87 845.192 1019.65 849.807 1013.68 C 875.651 980.279 915.761 958.712 942.649 1004.28 C 944.992 1008.25 947.541 1012.9 948.625 1017.59 C 952.841 1026.49 957.25 1038.12 959.406 1047.77 L 956.319 1047.35 L 953.916 1046.58 C 951.258 1042.78 950.964 1040.53 949.753 1036.08 C 945.315 1039.78 945.364 1041.64 939.698 1039.43 C 932.415 1042.09 923.54 1051.26 917.564 1056.77 C 916.517 1056.27 915.454 1055.83 914.384 1055.38 C 911.051 1052.25 910.418 1045.76 905.887 1044.39 L 903.32 1047.07 C 890.855 1030.48 881.436 1016.81 858.201 1022.24 C 848.294 1024.56 845.961 1027.72 837.391 1031.56 z"/>
<path transform="translate(0,0)" fill="rgb(72,101,111)" d="M 949.753 1036.08 C 947.798 1030.58 946.696 1025.07 945.142 1019.44 C 944.03 1015.41 938.975 1010.21 941.625 1006.51 C 943.344 1009.98 944.965 1013.69 946.579 1017.23 L 948.625 1017.59 C 952.841 1026.49 957.25 1038.12 959.406 1047.77 L 956.319 1047.35 L 953.916 1046.58 C 951.258 1042.78 950.964 1040.53 949.753 1036.08 z"/>
<path transform="translate(0,0)" fill="url(#Gradient3)" d="M 1197.06 838.617 C 1197.07 838.04 1197.08 837.462 1197.1 836.885 C 1197.77 815.724 1201.16 792.908 1217.46 777.605 C 1238.41 757.852 1270.43 759.722 1289.54 781.091 C 1304.45 797.765 1305.6 813.35 1304.77 834.486 C 1294.93 803.695 1267.66 790.209 1241.6 814.025 C 1226.85 817.839 1217.45 814.317 1203.11 822.977 C 1201.54 821.795 1201.66 821.752 1200.7 819.996 C 1200.49 827.213 1201.45 833.302 1197.06 838.617 z"/>
<path transform="translate(0,0)" fill="url(#Gradient2)" d="M 617.22 719.173 C 666.65 769.694 671.681 836.903 639.283 898.099 C 636.694 890.84 644.784 885.47 642.512 877.264 C 640.337 876.842 640.405 876.786 638.455 875.681 C 637.356 861.984 622.86 872.072 616.701 871.031 L 614.812 867.537 C 634.778 817.027 638.037 770.12 617.22 719.173 z"/>
<path transform="translate(0,0)" fill="url(#Gradient1)" d="M 1197.06 838.617 C 1201.45 833.302 1200.49 827.213 1200.7 819.996 C 1201.66 821.752 1201.54 821.795 1203.11 822.977 C 1217.45 814.317 1226.85 817.839 1241.6 814.025 C 1224.38 840.24 1227.82 866.674 1223.75 896.429 C 1220.9 917.281 1213.9 946.57 1203.71 965.049 C 1203.85 953.878 1204.03 942.701 1203.74 931.531 C 1202.94 900.458 1197.5 869.71 1197.06 838.617 z"/>
<path transform="translate(0,0)" fill="rgb(50,136,102)" d="M 1349.95 725.586 C 1368.37 777.794 1356.37 827.52 1320.96 869.034 C 1334.73 836.361 1340.34 813.295 1326.35 778.577 C 1326 777.703 1325.64 776.833 1325.27 775.968 C 1341.57 767.271 1334.41 759.628 1342.63 748.818 C 1351.91 736.611 1349.07 741.117 1349.95 725.586 z"/>
<path transform="translate(0,0)" fill="rgb(21,97,79)" d="M 471.16 986.438 C 470.961 972.588 470.346 950.981 471.893 937.49 C 472.846 945.793 472.535 955.152 472.492 963.585 C 472.457 967.07 471.888 973.692 473.425 976.393 L 474.082 974.654 L 475.416 974.795 C 474.471 982.17 473.604 989.821 472.535 997.153 C 472.227 993.531 472.093 989.935 471.16 986.438 z"/>
</svg>